# Blender 5.2.2 LTS
# www.blender.org
mtllib bullet.mtl
o Plane
v -0.250480 0.000000 -0.030150
v -0.250480 0.000000 0.030150
v 0.250480 -0.000000 -0.030150
v 0.250480 -0.000000 0.030150
v -0.250480 0.030098 -0.000000
v -0.250480 -0.030098 -0.000000
v 0.250480 0.030098 0.000000
v 0.250480 -0.030098 0.000000
v 0.132707 0.030140 0.030140
v 0.132707 0.030140 -0.030140
v 0.132707 -0.030140 0.030140
v 0.132707 -0.030140 -0.030140
v 0.132707 0.030140 0.000000
v 0.132707 -0.030140 0.000000
vn -0.0000 1.0000 -0.0000
vn -0.0000 -0.0000 1.0000
vn -1.0000 -0.0000 -0.0000
vt -0.000057 0.593845
vt -0.000057 0.437405
vt 1.000057 0.437405
vt 1.000057 0.593845
vt 0.000057 0.593655
vt 0.000057 0.437595
vt 0.999943 0.437595
vt 0.999943 0.593655
vt 0.890625 0.593511
vt 0.968750 0.593511
vt 0.968750 0.437739
vt 0.890625 0.437739
s 1
usemtl Material.001
f 1/1/1 2/2/1 4/3/1 3/4/1
f 5/5/2 6/6/2 8/7/2 7/8/2
f 13/9/3 10/10/3 12/11/3 14/12/3
f 9/10/3 13/9/3 14/12/3 11/11/3
